<?xml version="1.0" encoding="iso-8859-1"?>
<!-- Uploaded to: SVG Repo, www.svgrepo.com, Generator: SVG Repo Mixer Tools -->
<svg fill="#000000" height="800px" width="800px" version="1.1" id="Layer_1" xmlns="http://www.w3.org/2000/svg" xmlns:xlink="http://www.w3.org/1999/xlink" 
	 viewBox="0 0 512 512" xml:space="preserve">
<g>
	<g>
		<path d="M256.001,0.001C114.84,0.001,0,114.841,0,256s114.84,255.999,256.001,255.999S512,397.159,512,256
			S397.16,0.001,256.001,0.001z M216.128,212.436c-17.502,0-31.691-14.189-31.691-31.691c0-17.504,14.189-31.691,31.691-31.691
			s31.691,14.189,31.691,31.691C247.821,198.247,233.632,212.436,216.128,212.436z M255.999,149.052
			c-17.502,0-31.691-14.188-31.691-31.691c0-17.502,14.189-31.691,31.691-31.691s31.691,14.189,31.691,31.691
			S273.501,149.052,255.999,149.052z M295.872,212.436c-17.502,0-31.691-14.189-31.691-31.691c0-17.504,14.189-31.691,31.691-31.691
			c17.502,0,31.691,14.189,31.691,31.691S313.374,212.436,295.872,212.436z"/>
	</g>
</g>
</svg>